<?xml version="1.0" encoding="UTF-8" standalone="no"?>
<svg
   width="500"
   zoomAndPan="magnify"
   viewBox="0 0 375 374.99999"
   height="500"
   preserveAspectRatio="xMidYMid"
   version="1.2"
   id="svg80"
   xmlns="http://www.w3.org/2000/svg"
   xmlns:svg="http://www.w3.org/2000/svg">
  <defs
     id="defs19">
    <clipPath
       id="4b1423bfc0">
      <path
         d="m 121.04297,152.79297 h 187.11719 v 70.44531 H 121.04297 Z m 0,0"
         id="path1" />
    </clipPath>
    <clipPath
       id="4e8a2c2931">
      <path
         d="m 183.40625,219.00781 c 9.58594,2.55469 20.48437,4.23047 31.18359,4.23047 10.69532,0 20.98828,-1.4375 30.47266,-3.99219 0.20312,-0.082 0.40625,-0.082 0.60547,-0.16015 35.62109,-10.21875 61.85937,-37.19922 62.36328,-66.29297 H 121.04297 c 0.50781,29.25 26.33984,56.23437 62.36328,66.21484 z m 0,0"
         id="path2" />
    </clipPath>
    <clipPath
       id="73fb0526f2">
      <path
         d="m 168,145 h 23.78516 v 59 H 168 Z m 0,0"
         id="path3" />
    </clipPath>
    <clipPath
       id="83f97dcc96">
      <path
         d="m 163,114 h 9 v 94.0625 h -9 z m 0,0"
         id="path4" />
    </clipPath>
    <clipPath
       id="afaf48fce8">
      <path
         d="m 174,122 h 17.78516 v 34 H 174 Z m 0,0"
         id="path5" />
    </clipPath>
    <clipPath
       id="74a1b695b4">
      <path
         d="m 155,103.0625 h 9 V 198 h -9 z m 0,0"
         id="path6" />
    </clipPath>
    <clipPath
       id="1cb57da840">
      <path
         d="M 134.92578,122 H 152 v 34 h -17.07422 z m 0,0"
         id="path7" />
    </clipPath>
    <clipPath
       id="2efc96f2f6">
      <path
         d="m 117,92 h 91.76562 V 194.53906 H 117 Z m 0,0"
         id="path8" />
    </clipPath>
    <clipPath
       id="4664b69b82">
      <path
         d="M 106.01563,85.789062 H 124 V 103 h -17.98437 z m 0,0"
         id="path9" />
    </clipPath>
    <clipPath
       id="192be0956b">
      <path
         d="m 201,165.80469 h 4 V 170 h -4 z m 0,0"
         id="path10" />
    </clipPath>
    <clipPath
       id="d5429dccf7">
      <path
         d="m 196,165.80469 h 5 V 170 h -5 z m 0,0"
         id="path11" />
    </clipPath>
    <clipPath
       id="010245b83e">
      <path
         d="m 191,165.80469 h 5 V 170 h -5 z m 0,0"
         id="path12" />
    </clipPath>
    <clipPath
       id="f6c8ad169c">
      <path
         d="m 187,165.80469 h 5 V 170 h -5 z m 0,0"
         id="path13" />
    </clipPath>
    <clipPath
       id="64318b5fdd">
      <path
         d="m 268,190 h 5 v 4.30469 h -5 z m 0,0"
         id="path14" />
    </clipPath>
    <clipPath
       id="4046dd648a">
      <path
         d="m 263,190 h 5 v 4.30469 h -5 z m 0,0"
         id="path15" />
    </clipPath>
    <clipPath
       id="b7e385acda">
      <path
         d="m 258,190 h 5 v 4.30469 h -5 z m 0,0"
         id="path16" />
    </clipPath>
    <clipPath
       id="16536a51ed">
      <path
         d="m 254,190 h 5 v 4.30469 h -5 z m 0,0"
         id="path17" />
    </clipPath>
    <clipPath
       id="21eb1a57e2">
      <path
         d="M 173.80469,178 H 178 v 5 h -4.19531 z m 0,0"
         id="path18" />
    </clipPath>
    <clipPath
       id="64d3319095">
      <path
         d="m 281,177 h 4.55469 v 5 H 281 Z m 0,0"
         id="path19" />
    </clipPath>
  </defs>
  <g
     id="4bdf8a51d1">
    <g
       clip-rule="nonzero"
       clip-path="url(#4b1423bfc0)"
       id="g21"
       transform="matrix(0.83018176,0,0,0.93891201,-60.857008,8.5725133)">
      <g
         clip-rule="nonzero"
         clip-path="url(#4e8a2c2931)"
         id="g20">
        <path
           style="fill:#022d5e;fill-opacity:1;fill-rule:nonzero;stroke:none"
           d="m 121.04297,152.79297 h 187.11719 v 70.44531 H 121.04297 Z m 0,0"
           id="path20" />
      </g>
    </g>
    <rect
       style="opacity:1;fill:#fd8804;fill-opacity:1;stroke:none;stroke-width:0.862953;stroke-linecap:square;stroke-linejoin:bevel;stroke-miterlimit:4.9;stroke-dasharray:none;stroke-dashoffset:0;stroke-opacity:1;paint-order:normal"
       id="rect85"
       width="24.789677"
       height="93.524635"
       x="62.986931"
       y="105.10184" />
    <g
       clip-rule="nonzero"
       clip-path="url(#73fb0526f2)"
       id="g22"
       transform="rotate(-89.856976,141.53439,182.28529)"
       style="opacity:0.706667">
      <path
         style="fill:#fd8804;fill-opacity:1;fill-rule:nonzero;stroke:none"
         d="m 170.91016,202.51562 c 0,-0.55078 -0.44532,-0.99609 -0.99219,-0.99609 -0.55078,0 -0.9961,0.44531 -0.9961,0.99609 0,0.54688 0.44532,0.99219 0.9961,0.99219 0.54687,0 0.99219,-0.44531 0.99219,-0.99219 z m 17.1875,-54.23828 c 0.55078,0 0.99218,-0.44531 0.99218,-0.99218 0,-0.54688 -0.4414,-0.99219 -0.99218,-0.99219 -0.54688,0 -0.99219,0.44531 -0.99219,0.99219 0,0.54687 0.44531,0.99218 0.99219,0.99218 z m -19.48047,54.23828 c 0,-0.61328 0.42578,-1.125 0.99218,-1.26171 v -27.80079 l 5.97657,-5.97265 v -8.31641 l 4.45703,-4.45703 h 5.14453 l 2.60547,-2.60937 v -3.55079 c -0.56641,-0.14062 -0.99219,-0.65234 -0.99219,-1.26171 0,-0.71485 0.58203,-1.29688 1.29688,-1.29688 0.71875,0 1.30078,0.58203 1.30078,1.29688 0,0.60937 -0.42578,1.12109 -0.9961,1.26171 v 3.80469 l -2.66015,2.66016 5.03125,5.03125 v 8.28515 c 0.48437,0.13282 0.83984,0.57813 0.83984,1.10157 0,0.63281 -0.51172,1.14843 -1.14453,1.14843 -0.62891,0 -1.14453,-0.51562 -1.14453,-1.14843 0,-0.52344 0.35547,-0.96875 0.83984,-1.10157 v -8.03515 l -4.97656,-4.97656 h -4.89063 l -4.10156,4.10156 v 8.3125 l -5.97656,5.97656 v 27.54688 c 0.57031,0.13671 0.99609,0.64843 0.99609,1.26171 0,0.71485 -0.58203,1.29688 -1.29687,1.29688 -0.71875,0 -1.30078,-0.58203 -1.30078,-1.29688"
         id="path21" />
    </g>
    <g
       clip-rule="nonzero"
       clip-path="url(#83f97dcc96)"
       id="g23"
       style="opacity:0.528889;fill:none;stroke:#ffffff;stroke-width:0.15;stroke-dasharray:none;stroke-opacity:1"
       transform="translate(-87.786474,-2.8188317)">
      <path
         style="fill:#ffffff;fill-opacity:1;fill-rule:nonzero;stroke:none;stroke-width:0.15;stroke-dasharray:none;stroke-opacity:1"
         d="m 164.64844,116.625 c 0.55078,0 0.99609,-0.44922 0.99609,-0.99609 0,-0.54688 -0.44531,-0.99219 -0.99609,-0.99219 -0.54688,0 -0.99219,0.44531 -0.99219,0.99219 0,0.54687 0.44531,0.99609 0.99219,0.99609 z m 2.00781,39.82812 4.49609,-4.49218 v -11.01953 l -6.80468,-6.80469 v -17.24609 c -0.57032,-0.13672 -0.9961,-0.64844 -0.9961,-1.26172 0,-0.71485 0.58203,-1.29688 1.29688,-1.29688 0.71875,0 1.30078,0.58203 1.30078,1.29688 0,0.61328 -0.42578,1.125 -0.9961,1.26172 v 16.99218 l 6.8086,6.80469 v 11.52344 l -4.4961,4.49609 v 49.07813 c 0.48438,0.13281 0.83985,0.57421 0.83985,1.10156 0,0.63281 -0.51172,1.14453 -1.14453,1.14453 -0.63282,0 -1.14453,-0.51172 -1.14453,-1.14453 0,-0.52735 0.35546,-0.96875 0.83984,-1.10156 v -49.33204"
         id="path22" />
    </g>
    <rect
       style="opacity:1;fill:#fd8804;fill-opacity:1;stroke:none;stroke-width:0.290156;stroke-linecap:square;stroke-linejoin:bevel;stroke-miterlimit:4.9;stroke-dasharray:none;stroke-dashoffset:0;stroke-opacity:1;paint-order:normal"
       id="rect86"
       width="15.714889"
       height="16.679123"
       x="88.650909"
       y="-156.28163"
       transform="matrix(1,0,0.0171307,-0.99985326,0,0)" />
    <path
       style="opacity:1;fill:#fd8804;fill-opacity:1;fill-rule:nonzero;stroke:none;stroke-width:0.587278;stroke-dasharray:none;stroke-opacity:1"
       d="m 105.57565,155.46759 c 0.002,0.56721 -1.21323,2.50497 -2.68378,2.5078 -1.47056,0.003 -2.31584,0.31419 -2.31703,-0.25301 l -0.25296,-18.49632 c -0.002,-0.56723 1.12389,-0.74386 2.59445,-0.74667 1.47056,-0.003 2.87923,-0.28143 2.7114,0.73651 z"
       id="path82" />
    <path
       style="opacity:1;fill:#fd8804;fill-opacity:1;fill-rule:nonzero;stroke:none;stroke-width:1.03526;stroke-dasharray:none;stroke-opacity:1"
       d="m 103.95208,142.75787 c 0.95486,0 1.7202,2.18261 1.7202,4.89723 0,2.71462 -0.76534,4.89724 -1.7202,4.89724 H 81.757484 c -0.954878,0 -1.722599,-2.18262 -1.722599,-4.89724 0,-2.71462 0.767721,-4.89723 1.722599,-4.89723 z m 0,0"
       id="path81" />
    <path
       style="fill:#ffffff;fill-opacity:1;fill-rule:nonzero;stroke:none;stroke-width:1.79254"
       d="m 73.958501,145.68184 c 1.052802,0 1.910086,-0.74326 1.910086,-1.65605 0,-0.91277 -0.857284,-1.65605 -1.910086,-1.65605 -1.052806,0 -1.910088,0.74328 -1.910088,1.65605 0,0.91279 0.857282,1.65605 1.910088,1.65605 z m -0.586563,0.44334 c -1.090403,-0.22818 -1.910088,-1.08228 -1.910088,-2.09939 0,-1.19313 1.120486,-2.16459 2.496651,-2.16459 1.376164,0 2.496647,0.97146 2.496647,2.16459 0,1.01711 -0.812161,1.87121 -1.910086,2.09939 v 13.57439 l -8.399869,7.2892 V 155.8398 c -0.932483,-0.22168 -1.624326,-0.96495 -1.624326,-1.83861 0,-1.05622 0.992644,-1.91032 2.210887,-1.91032 1.210726,0 2.203367,0.8541 2.203367,1.91032 0,0.87366 -0.684321,1.61693 -1.624325,1.83861 v 8.69099 l 6.061142,-5.25502 v -13.15059"
       id="path23" />
    <path
       style="fill:#ffffff;fill-opacity:1;fill-rule:nonzero;stroke:none;stroke-width:0.15;stroke-dasharray:none;stroke-opacity:1"
       d="m 84.495376,120.07059 c -0.55078,0 -0.99609,0.44532 -0.99609,0.99219 0,0.54688 0.44531,0.99219 0.99609,0.99219 0.54688,0 0.99219,-0.44531 0.99219,-0.99219 0,-0.54687 -0.44531,-0.99219 -0.99219,-0.99219 z m -2.61719,-9.5 2.91797,2.91797 v 6.3125 c 0.57031,0.14063 0.9961,0.65235 0.9961,1.26172 0,0.71484 -0.58204,1.29688 -1.29688,1.29688 -0.71875,0 -1.30078,-0.58204 -1.30078,-1.29688 0,-0.60937 0.42578,-1.12109 0.99609,-1.26172 v -6.0625 l -1.70312,-1.69922 v 11.1836 l -2.03125,2.03515 c 0.24609,0.4375 0.1875,1 -0.1875,1.375 -0.44531,0.44532 -1.17188,0.44532 -1.61719,0 -0.44922,-0.44922 -0.44922,-1.17578 0,-1.62109 0.37109,-0.37109 0.9375,-0.43359 1.37109,-0.18359 l 1.85547,-1.85547 v -12.40235"
       id="path24" />
    <g
       style="fill:#022d5e;fill-opacity:1;stroke:#ffffff;stroke-width:0.69975;stroke-dasharray:none;stroke-opacity:1"
       id="g87"
       transform="matrix(2.7123816,0,0,2.3043741,-524.68959,-137.10742)">
      <g
         clip-rule="nonzero"
         clip-path="url(#2efc96f2f6)"
         id="g35"
         style="stroke:none;stroke-width:0.99975;stroke-dasharray:none"
         transform="matrix(0.36867967,0,0,0.50438522,161.16039,48.105433)">
        <path
           style="fill:#fd8804;fill-opacity:1;fill-rule:nonzero;stroke:none;stroke-width:0.99975;stroke-dasharray:none"
           d="m 173.45643,156.56669 c 0.005,-1.55469 0.46257,-2.45858 2.01593,-2.51385 3.05487,-0.1087 3.47686,1.83168 3.47686,3.38637 v 34.0686 c 0,1.55469 -1.2461,2.80469 -2.80078,2.80469 h -27.29688 c -1.55469,0 -2.80078,-1.25 -2.80078,-2.80469 V 119.4375 h -20.03125 c -1.55469,0 -2.80469,-1.25 -2.80469,-2.80469 0,-1.55468 1.25,-2.80078 2.80469,-2.80078 h 22.83203 c 1.55469,0 2.80469,1.2461 2.80469,2.80078 v 72.04688 h 21.6875 z M 120.28516,97.800781 c -1.55469,0 -2.80469,-1.25 -2.80469,-2.804687 0,-1.550782 1.25,-2.800782 2.80469,-2.800782 h 85.34765 c 1.55469,0 2.80469,1.25 2.80469,2.800782 v 21.636716 c 0,1.55469 -1.25,2.80469 -2.80469,2.80469 h -26.68359 l -0.0563,23.39736 c -0.003,1.31172 -1.82718,0.96295 -3.38186,0.96295 -1.55469,0 -2.04968,-1.1371 -2.05459,-2.22326 l -0.11268,-24.91439 c -0.007,-1.55468 1.25,-2.80469 2.80469,-2.80469 h 26.67968 V 97.800781 Z"
           id="path35" />
      </g>
      <g
         transform="translate(211.27365,141.32325)"
         id="g86"
         style="fill:#022d5e;fill-opacity:1;stroke:#ffffff;stroke-width:0.69975;stroke-dasharray:none;stroke-opacity:1">
        <path
           style="fill:#022d5e;fill-opacity:1;stroke:none;stroke-width:0.797205;stroke-dasharray:none;stroke-opacity:1"
           d="m 21.947506,-14.057927 c 0.124469,0 0.233381,0.06109 0.326734,0.1833 0.101132,0.1222 0.155587,0.274949 0.155587,0.448067 v 3.1772 c 0,0.162934 -0.05446,0.3156829 -0.155587,0.4480669 -0.09335,0.1222 -0.202265,0.1833 -0.326734,0.1833 H 13.623575 V 6.4920441 c 0,0.1629334 -0.05446,0.3156828 -0.155587,0.4480668 -0.09335,0.1222 -0.202264,0.1833 -0.326734,0.1833 H 10.71409 c -0.13614,0 -0.248941,-0.0611 -0.342293,-0.1833 -0.09335,-0.132384 -0.140029,-0.2851334 -0.140029,-0.4480668 V -9.6179931 H 1.8767202 c -0.1361393,0 -0.2567188,-0.06109 -0.3578512,-0.1833 C 1.425517,-9.9336771 1.3788403,-10.086426 1.3788403,-10.24936 v -3.1772 c 0,-0.173118 0.046676,-0.325867 0.1400287,-0.448067 0.1011324,-0.1222 0.2217119,-0.1833 0.3578512,-0.1833 z m 0,0"
           id="path86" />
      </g>
    </g>
    <rect
       style="opacity:1;fill:#fd8804;fill-opacity:1;stroke:none;stroke-width:0.702133;stroke-linecap:square;stroke-linejoin:bevel;stroke-miterlimit:4.9;stroke-dasharray:none;stroke-dashoffset:0;stroke-opacity:1;paint-order:normal"
       id="rect83"
       width="60.808704"
       height="25.240381"
       x="58.067665"
       y="83.692589" />
    <path
       style="fill:#ffffff;fill-opacity:1;fill-rule:nonzero;stroke:#ffffff;stroke-width:0.15;stroke-dasharray:none;stroke-opacity:1"
       d="m 62.119786,78.82495 c 0.54687,0 0.99219,-0.44531 0.99219,-0.99219 0,-0.54687 -0.44532,-0.99218 -0.99219,-0.99218 -0.54688,0 -0.99219,0.44531 -0.99219,0.99218 0,0.54688 0.44531,0.99219 0.99219,0.99219 z m 6.83594,8.70313 2.42968,2.42578 c 0.4336,-0.25 1,-0.1875 1.3711,0.18359 0.44922,0.44922 0.44922,1.17188 0,1.62109 -0.44531,0.44532 -1.17188,0.44532 -1.61719,0 -0.37109,-0.375 -0.43359,-0.9375 -0.1875,-1.375 l -2.24609,-2.24609 h -3.28907 l -2.99218,2.99219 v 3.51172 l -3.88282,3.878898 v 11.789072 c 0.48438,0.13671 0.84375,0.57812 0.84375,1.10546 0,0.63282 -0.51562,1.14454 -1.14453,1.14454 -0.63282,0 -1.14844,-0.51172 -1.14844,-1.14454 0,-0.52734 0.35937,-0.96875 0.84375,-1.10546 V 98.266358 l 3.87891,-3.878908 V 79.09058 c -0.57031,-0.13672 -0.99219,-0.64844 -0.99219,-1.25782 0,-0.71484 0.58204,-1.29687 1.29688,-1.29687 0.71484,0 1.29687,0.58203 1.29687,1.29687 0,0.60938 -0.42578,1.1211 -0.99218,1.25782 v 11.17578 l 2.73828,-2.73828 h 3.79297"
       id="path25" />
    <path
       style="fill:#ffffff;fill-opacity:1;fill-rule:nonzero;stroke:none;stroke-width:1.79254"
       d="m 70.807609,207.91402 c 0,-0.8802 0.684323,-1.62346 1.616805,-1.84513 v -31.9865 l 11.265,-9.76676 v -4.36179 c -0.93248,-0.2282 -1.61681,-0.96494 -1.61681,-1.84513 0,-1.05621 0.98513,-1.91032 2.20337,-1.91032 1.21825,0 2.20337,0.85411 2.20337,1.91032 0,0.88019 -0.68432,1.61693 -1.61681,1.84513 v 4.77906 l -11.264994,9.76676 v 31.56923 c 0.932481,0.22167 1.616804,0.96493 1.616804,1.84513 0,1.04968 -0.985124,1.91032 -2.203367,1.91032 -1.218244,0 -2.203368,-0.86064 -2.203368,-1.91032"
       id="path26" />
    <g
       clip-rule="nonzero"
       clip-path="url(#afaf48fce8)"
       id="g27"
       style="opacity:1;fill:#ffffff;fill-opacity:1;stroke:none;stroke-width:0.32475;stroke-dasharray:none;stroke-opacity:1"
       transform="rotate(-89.004294,150.82387,183.0903)">
      <path
         style="fill:#ffffff;fill-opacity:1;fill-rule:nonzero;stroke:none;stroke-width:0.32475;stroke-dasharray:none;stroke-opacity:1"
         d="m 176.07422,153.30469 c -0.54688,0 -0.99219,0.44531 -0.99219,0.99609 0,0.54688 0.44531,0.99219 0.99219,0.99219 0.54687,0 0.99219,-0.44531 0.99219,-0.99219 0,-0.55078 -0.44532,-0.99609 -0.99219,-0.99609 z m 7.70312,-4.75 c 0,0.63281 -0.51172,1.14843 -1.14453,1.14843 -0.63281,0 -1.14453,-0.51562 -1.14453,-1.14843 0,-0.52344 0.35547,-0.96875 0.83984,-1.10157 v -3.58593 l -3.17187,-3.17188 v -5.48828 l -2.77734,2.77734 v 15.05469 c 0.57031,0.13672 0.99218,0.64844 0.99218,1.26172 0,0.71484 -0.58203,1.29688 -1.29687,1.29688 -0.71485,0 -1.29688,-0.58204 -1.29688,-1.29688 0,-0.61328 0.42578,-1.125 0.99219,-1.26172 v -15.30469 l 3.56641,-3.5664 h 5.97265 l 5.02735,-5.02735 v -4.67578 c -0.48438,-0.13281 -0.83985,-0.57812 -0.83985,-1.10546 0,-0.62891 0.51172,-1.14454 1.14453,-1.14454 0.63282,0 1.14454,0.51563 1.14454,1.14454 0,0.52734 -0.35547,0.97265 -0.83985,1.10546 v 4.92969 l -5.38281,5.38281 h -5.79688 v 5.66407 l 3.17188,3.17187 v 3.83984 c 0.48437,0.13282 0.83984,0.57813 0.83984,1.10157"
         id="path27" />
    </g>
    <path
       style="opacity:1;fill:#fd8804;fill-opacity:1;fill-rule:nonzero;stroke:none;stroke-width:0.587278;stroke-dasharray:none;stroke-opacity:1"
       d="m 89.976136,140.87326 c -0.56717,0.007 -1.07538,-0.97103 -1.0925,-2.44149 -0.0175,-1.47046 0.42375,-2.65812 0.99092,-2.66483 L 103.058,135.61118 c 0.56718,-0.007 2.39148,1.1702 1.97038,2.95937 0.0175,1.47046 -1.34142,2.348 -1.90864,2.34613 z"
       id="path36" />
    <g
       clip-rule="nonzero"
       clip-path="url(#74a1b695b4)"
       id="g28"
       transform="translate(-87.945828,-1.0659378)"
       style="fill:none;stroke:#ffffff;stroke-width:0.15;stroke-dasharray:none;stroke-opacity:1">
      <path
         style="fill:#ffffff;fill-opacity:1;fill-rule:nonzero;stroke:#ffffff;stroke-width:0.15;stroke-dasharray:none;stroke-opacity:1"
         d="m 159.90625,194.77734 c -0.55078,0 -0.99609,0.44532 -0.99609,0.9961 0,0.54687 0.44531,0.99218 0.99609,0.99218 0.54687,0 0.99219,-0.44531 0.99219,-0.99218 0,-0.55078 -0.44532,-0.9961 -0.99219,-0.9961 z m 3.45312,-90.35546 c 0,0.52734 -0.35546,0.96875 -0.83984,1.10156 v 28.61328 l -6.80469,6.80469 v 11.01953 l 4.49219,4.49218 v 38.0586 c 0.57031,0.13672 0.99609,0.64844 0.99609,1.26172 0,0.71484 -0.58203,1.29687 -1.29687,1.29687 -0.71484,0 -1.29688,-0.58203 -1.29688,-1.29687 0,-0.61328 0.42188,-1.125 0.99219,-1.26172 v -37.80469 l -4.49609,-4.49609 V 140.6875 l 6.80469,-6.80469 v -28.35937 c -0.48438,-0.13281 -0.83985,-0.57422 -0.83985,-1.10156 0,-0.63282 0.51172,-1.14454 1.14453,-1.14454 0.63282,0 1.14453,0.51172 1.14453,1.14454"
         id="path28" />
    </g>
    <path
       style="opacity:1;fill:#ffffff;fill-opacity:1;fill-rule:nonzero;stroke:none"
       d="m 65.95962,154.48195 c 0.546875,0 0.992187,-0.44531 0.992187,-0.99219 0,-0.54687 -0.445312,-0.99219 -0.992187,-0.99219 -0.546875,0 -0.992188,0.44532 -0.992188,0.99219 0,0.54688 0.445313,0.99219 0.992188,0.99219 z m 2.613281,4.98437 c 0,-0.63281 0.511719,-1.14453 1.144531,-1.14453 0.632813,0 1.144532,0.51172 1.144532,1.14453 0,0.52344 -0.355469,0.96875 -0.839844,1.10157 v 6.67968 l -4.367188,-4.36718 v -8.13282 c -0.570312,-0.13671 -0.992187,-0.64843 -0.992187,-1.25781 0,-0.71484 0.582031,-1.29687 1.296875,-1.29687 0.714844,0 1.296875,0.58203 1.296875,1.29687 0,0.60938 -0.421875,1.1211 -0.992188,1.25781 v 7.87891 l 3.148438,3.14844 v -5.20703 c -0.484375,-0.13282 -0.839844,-0.57813 -0.839844,-1.10157"
       id="path29" />
    <g
       clip-rule="nonzero"
       clip-path="url(#1cb57da840)"
       id="g30"
       transform="translate(-87.786474,-2.8188317)">
      <path
         style="fill:#fd8804;fill-opacity:1;fill-rule:nonzero;stroke:none"
         d="m 135.23047,123.51172 c 0,0.55078 0.44531,0.99219 0.99609,0.99219 0.54688,0 0.99219,-0.44141 0.99219,-0.99219 0,-0.54688 -0.44531,-0.99219 -0.99219,-0.99219 -0.55078,0 -0.99609,0.44531 -0.99609,0.99219 z m 2.29297,0 c 0,0.61328 -0.42578,1.125 -0.9961,1.26172 v 4.36718 l 5.02735,5.02735 h 5.97265 l 3.56641,3.5664 v 15.61329 c 0.48437,0.13281 0.83984,0.57812 0.83984,1.10156 0,0.63281 -0.51172,1.14844 -1.14453,1.14844 -0.63281,0 -1.14453,-0.51563 -1.14453,-1.14844 0,-0.52344 0.35547,-0.96875 0.83984,-1.10156 v -15.36329 l -2.77734,-2.77734 v 5.48828 l -3.17187,3.17188 v 3.58593 c 0.48437,0.13282 0.83984,0.57813 0.83984,1.10157 0,0.63281 -0.51172,1.14843 -1.14453,1.14843 -0.63281,0 -1.14453,-0.51562 -1.14453,-1.14843 0,-0.52344 0.35547,-0.96875 0.83984,-1.10157 v -3.83984 l 3.17188,-3.17187 v -5.66407 h -5.79297 l -5.38282,-5.38281 v -4.62109 c -0.57031,-0.13672 -0.99218,-0.64844 -0.99218,-1.26172 0,-0.71484 0.57812,-1.29688 1.29687,-1.29688 0.71485,0 1.29688,0.58204 1.29688,1.29688"
         id="path30" />
    </g>
    <path
       style="fill:#ffffff;fill-opacity:1;fill-rule:nonzero;stroke:none;stroke-width:0.15;stroke-dasharray:none;stroke-opacity:1"
       d="m 65.858756,105.40534 c -0.54688,0 -0.99219,0.44531 -0.99219,0.99218 0,0.54688 0.44531,0.99219 0.99219,0.99219 0.54687,0 0.99219,-0.44531 0.99219,-0.99219 0,-0.54687 -0.44532,-0.99218 -0.99219,-0.99218 z m 5.84375,4.9414 c 0.44531,0.44531 0.44531,1.17188 0,1.6211 -0.44922,0.44531 -1.17188,0.44531 -1.6211,0 -0.37109,-0.375 -0.43359,-0.9375 -0.18359,-1.375 l -2.03516,-2.03516 V 97.374088 l -1.69921,1.69921 v 6.062502 c 0.5664,0.14063 0.99218,0.65235 0.99218,1.26172 0,0.71485 -0.58203,1.29688 -1.29687,1.29688 -0.71485,0 -1.29688,-0.58203 -1.29688,-1.29688 0,-0.60937 0.42188,-1.12109 0.99219,-1.26172 v -6.312502 l 2.91797,-2.917965 v 12.402347 l 1.85547,1.85547 c 0.4375,-0.25 1,-0.1875 1.375,0.18359"
       id="path32" />
    <path
       style="fill:#fd8804;fill-opacity:1;fill-rule:nonzero;stroke:none"
       d="m 40.057596,152.03222 v -2.86328 c -0.48438,-0.13672 -0.83985,-0.57813 -0.83985,-1.10547 0,-0.63281 0.51563,-1.14453 1.14454,-1.14453 0.63281,0 1.14453,0.51172 1.14453,1.14453 0,0.52734 -0.35547,0.96875 -0.83985,1.10547 v 2.61328 l 5.85157,5.85156 v 18.4336 c 0.48437,0.13281 0.83984,0.57812 0.83984,1.10156 0,0.63281 -0.51172,1.14844 -1.14453,1.14844 -0.63281,0 -1.14453,-0.51563 -1.14453,-1.14844 0,-0.52344 0.35547,-0.96875 0.83984,-1.10156 v -18.1836 l -5.85156,-5.85156"
       id="path33" />
    <path
       style="fill:#ffffff;fill-opacity:1;fill-rule:nonzero;stroke:none;stroke-width:1.0878"
       d="m 112.4639,78.426839 c -2.6e-4,-0.60094 -0.48139,-1.0897 -1.07451,-1.08899 -0.58891,1.7e-4 -1.06761,0.4906 -1.0666,1.09153 2.5e-4,0.60095 0.4814,1.0897 1.07031,1.08899 0.59312,-2e-4 1.07182,-0.49059 1.0708,-1.09153 z m 22.7848,3.83605 c -0.56789,2e-5 -1.04389,-0.3894 -1.18782,-0.92147 l -4.16023,0.005 -2.80504,2.87065 0.01,5.64875 -4.79125,4.9076 -8.95565,0.0106 -6.42055,6.570701 -30.269974,0.036 c -0.14211,0.53242 -0.62098,0.92361 -1.18886,0.92428 -0.67726,7.9e-4 -1.23346,-0.56084 -1.23464,-1.2562 -9.3e-4,-0.69537 0.5531,-1.258332 1.23035,-1.259132 0.56788,-2e-5 1.0481,0.389362 1.19202,0.921432 l 29.996534,-0.0357 6.42476,-6.570681 8.95143,-0.0106 4.40913,-4.51652 -0.009,-5.36976 -5.36842,-5.46639 -8.32045,0.01 c -0.14617,0.62257 -0.69643,1.09109 -1.35685,1.09188 -0.76979,0.001 -1.39767,-0.6379 -1.39899,-1.42341 -0.002,-0.7855 0.62433,-1.4258 1.39414,-1.42672 0.66041,-6.8e-4 1.21226,0.46212 1.36053,1.08863 l 8.58969,-0.0103 5.4274,5.52214 2.85964,-2.9265 4.43366,-0.005 c 0.14211,-0.53244 0.61677,-0.92361 1.18466,-0.92429 0.68145,-8.3e-4 1.23345,0.56084 1.23464,1.25622 9.3e-4,0.69534 -0.54891,1.2583 -1.23035,1.25911"
       id="path34" />
    <path
       style="fill:#fd8804;fill-opacity:1;fill-rule:nonzero;stroke:none"
       d="m 33.951106,106.20454 c -0.53515,-0.53516 -1.27343,-0.86719 -2.11718,-0.86719 -0.8125,0 -1.55078,0.33203 -2.11328,0.86719 -0.53516,0.53516 -0.86719,1.27344 -0.86719,2.11719 0,0.8164 0.33203,1.55469 0.86719,2.11328 0.53515,0.53516 1.27343,0.86719 2.11328,0.86719 0.8164,0 1.58203,-0.33203 2.11718,-0.86719 0.53516,-0.53516 0.86719,-1.27344 0.86719,-2.11328 0,-0.76563 -0.28125,-1.48047 -0.76562,-1.98828 z m -2.11718,-6.472662 c 2.37109,0 4.51172,0.968752 6.0664,2.523442 0.0508,0.0508 0.12891,0.12891 0.17969,0.17969 1.45313,1.52734 2.34375,3.59375 2.34375,5.85937 0,2.3711 -0.96875,4.51172 -2.52344,6.03907 -1.55468,1.55468 -3.69531,2.52343 -6.03906,2.52343 -2.37109,0 -4.51172,-0.96875 -6.03906,-2.52343 -1.55469,-1.55469 -2.52344,-3.69532 -2.52344,-6.0625 0,-2.3711 0.96875,-4.51172 2.52344,-6.06641 1.5039,-1.50391 3.64453,-2.472662 6.01172,-2.472662 z m 0,0"
       id="path39" />
    <g
       clip-rule="nonzero"
       clip-path="url(#4664b69b82)"
       id="g40"
       transform="translate(-88.742598,-9.1929913)">
      <path
         style="fill:#fd8804;fill-opacity:1;fill-rule:nonzero;stroke:none"
         d="m 116.64063,92.246094 c -0.53516,-0.535156 -1.27344,-0.867188 -2.11329,-0.867188 -0.8164,0 -1.55468,0.332032 -2.11718,0.867188 -0.53516,0.535156 -0.86719,1.273437 -0.86719,2.113281 0,0.816406 0.33203,1.554687 0.86719,2.117187 0.53515,0.535157 1.27343,0.867188 2.11718,0.867188 0.8125,0 1.57813,-0.332031 2.11329,-0.867188 0.53515,-0.535156 0.86718,-1.273437 0.86718,-2.117187 0,-0.761719 -0.28125,-1.476563 -0.76562,-1.984375 z m -2.08985,-6.449219 c 2.3711,0 4.51172,0.96875 6.06641,2.523437 0.0508,0.05078 0.125,0.128907 0.17578,0.179688 1.45312,1.527344 2.34766,3.59375 2.34766,5.859375 0,2.371094 -0.96875,4.511719 -2.52344,6.042965 -1.55469,1.55469 -3.69531,2.51954 -6.03906,2.51954 -2.3711,0 -4.51172,-0.96485 -6.04297,-2.51954 -1.55469,-1.554684 -2.51953,-3.695309 -2.51953,-6.066402 0,-2.371094 0.96484,-4.511719 2.51953,-6.066407 1.5039,-1.527343 3.64453,-2.472656 6.01562,-2.472656 z m 0,0"
         id="path40" />
    </g>
    <g
       style="fill:#fd8804;fill-opacity:1;stroke:#ffffff;stroke-width:0.69975;stroke-dasharray:none;stroke-opacity:1"
       id="g42"
       transform="matrix(1.780048,0,0,1.6524098,-212.78993,-88.031838)">
      <g
         transform="translate(186.01321,141.32325)"
         id="g41"
         style="fill:#fd8804;fill-opacity:1;stroke:#ffffff;stroke-width:0.69975;stroke-dasharray:none;stroke-opacity:1">
        <path
           style="fill:#fd8804;fill-opacity:1;stroke:#ffffff;stroke-width:0.69975;stroke-dasharray:none;stroke-opacity:1"
           d="m 0.96875,-15.765625 c 0,-0.132813 0.046875,-0.25 0.140625,-0.34375 C 1.210938,-16.203125 1.332031,-16.25 1.46875,-16.25 h 2.171875 c 0.132813,0 0.25,0.04687 0.34375,0.140625 0.09375,0.09375 0.140625,0.210937 0.140625,0.34375 V -5 c 0,0.210938 0.078125,0.390625 0.234375,0.546875 L 5.59375,-3.3125 c 0.0625,0.0625 0.171875,0.09375 0.328125,0.09375 H 13.75 c 0.132812,0 0.242188,-0.03125 0.328125,-0.09375 L 15.3125,-4.453125 C 15.46875,-4.585938 15.546875,-4.769531 15.546875,-5 v -10.765625 c 0,-0.132813 0.04687,-0.25 0.140625,-0.34375 0.09375,-0.09375 0.207031,-0.140625 0.34375,-0.140625 h 2.171875 c 0.132813,0 0.25,0.04687 0.34375,0.140625 0.101563,0.09375 0.15625,0.210937 0.15625,0.34375 V -3.9375 c 0,0.34375 -0.121094,0.625 -0.359375,0.84375 l -2.859375,2.703125 c -0.136719,0.105469 -0.28125,0.199219 -0.4375,0.28125 C 14.898438,-0.0351562 14.71875,0 14.5,0 H 5.171875 C 4.953125,0 4.769531,-0.0351562 4.625,-0.109375 4.488281,-0.191406 4.34375,-0.285156 4.1875,-0.390625 L 1.328125,-3.09375 C 1.085938,-3.332031 0.96875,-3.613281 0.96875,-3.9375 Z m 0,0"
           id="path41" />
      </g>
    </g>
    <path
       style="fill:#ffffff;fill-opacity:1;fill-rule:nonzero;stroke:none"
       d="m 60.346336,108.94289 c 0,0.54687 0.44531,0.99219 0.9961,0.99219 0.54687,0 0.99218,-0.44532 0.99218,-0.99219 0,-0.54688 -0.44531,-0.99219 -0.99218,-0.99219 -0.55079,0 -0.9961,0.44531 -0.9961,0.99219 z m 2.29297,0 c 0,0.60937 -0.42578,1.12109 -0.99609,1.25781 v 15.90625 l 3.88281,3.87891 v 12.04297 c 0.48437,0.13672 0.83984,0.57812 0.83984,1.10547 0,0.63281 -0.51172,1.14453 -1.14453,1.14453 -0.63281,0 -1.14453,-0.51172 -1.14453,-1.14453 0,-0.52735 0.35547,-0.96875 0.83984,-1.10547 v -11.78907 l -3.8789,-3.8789 v -3.51172 l -2.9961,-2.99219 h -3.28906 l -2.24609,2.2461 c 0.24609,0.4375 0.1875,1 -0.1875,1.375 -0.44531,0.44531 -1.17188,0.44531 -1.61719,0 -0.44922,-0.44922 -0.44922,-1.17188 0,-1.6211 0.37109,-0.37109 0.9375,-0.43359 1.375,-0.18359 l 2.42578,-2.42578 h 3.79297 l 2.74219,2.73828 V 110.2007 c -0.57031,-0.13672 -0.9961,-0.64844 -0.9961,-1.25781 0,-0.71484 0.58204,-1.29688 1.30079,-1.29688 0.71484,0 1.29687,0.58204 1.29687,1.29688"
       id="path31" />
    <g
       style="fill:#fd8804;fill-opacity:1;stroke:#ffffff;stroke-width:0.69975;stroke-dasharray:none;stroke-opacity:1"
       id="g46"
       transform="matrix(1.780048,0,0,1.6524098,-235.50074,-86.516003)">
      <g
         transform="translate(239.9474,141.32325)"
         id="g45"
         style="fill:#fd8804;fill-opacity:1;stroke:#ffffff;stroke-width:0.69975;stroke-dasharray:none;stroke-opacity:1">
        <path
           style="fill:#fd8804;fill-opacity:1;stroke:#ffffff;stroke-width:0.69975;stroke-dasharray:none;stroke-opacity:1"
           d="m 0.96875,-15.765625 c 0,-0.132813 0.046875,-0.25 0.140625,-0.34375 C 1.210938,-16.203125 1.332031,-16.25 1.46875,-16.25 h 2.171875 c 0.132813,0 0.25,0.04687 0.34375,0.140625 0.09375,0.09375 0.140625,0.210937 0.140625,0.34375 V -5 c 0,0.210938 0.078125,0.390625 0.234375,0.546875 L 5.59375,-3.3125 c 0.0625,0.0625 0.171875,0.09375 0.328125,0.09375 H 13.75 c 0.132812,0 0.242188,-0.03125 0.328125,-0.09375 L 15.3125,-4.453125 C 15.46875,-4.585938 15.546875,-4.769531 15.546875,-5 v -10.765625 c 0,-0.132813 0.04687,-0.25 0.140625,-0.34375 0.09375,-0.09375 0.207031,-0.140625 0.34375,-0.140625 h 2.171875 c 0.132813,0 0.25,0.04687 0.34375,0.140625 0.101563,0.09375 0.15625,0.210937 0.15625,0.34375 V -3.9375 c 0,0.34375 -0.121094,0.625 -0.359375,0.84375 l -2.859375,2.703125 c -0.136719,0.105469 -0.28125,0.199219 -0.4375,0.28125 C 14.898438,-0.0351562 14.71875,0 14.5,0 H 5.171875 C 4.953125,0 4.769531,-0.0351562 4.625,-0.109375 4.488281,-0.191406 4.34375,-0.285156 4.1875,-0.390625 L 1.328125,-3.09375 C 1.085938,-3.332031 0.96875,-3.613281 0.96875,-3.9375 Z m 0,0"
           id="path44" />
      </g>
    </g>
    <g
       style="fill:#fd8804;fill-opacity:1;stroke:#ffffff;stroke-width:0.69975;stroke-dasharray:none;stroke-opacity:1"
       id="g44"
       transform="matrix(1.780048,0,0,1.6524098,-223.62848,-96.871667)">
      <g
         transform="translate(211.27365,141.32325)"
         id="g43"
         style="stroke:#ffffff;stroke-width:0.69975;stroke-dasharray:none;stroke-opacity:1">
        <path
           style="stroke:#ffffff;stroke-width:0.69975;stroke-dasharray:none;stroke-opacity:1"
           d="m 21.625,-16.25 c 0.125,0 0.234375,0.04687 0.328125,0.140625 0.101563,0.09375 0.15625,0.210937 0.15625,0.34375 v 2.4375 c 0,0.125 -0.05469,0.242187 -0.15625,0.34375 -0.09375,0.09375 -0.203125,0.140625 -0.328125,0.140625 h -8.359375 v 12.359375 c 0,0.125 -0.05469,0.242187 -0.15625,0.34375 C 13.015625,-0.046875 12.90625,0 12.78125,0 h -2.4375 C 10.207031,0 10.09375,-0.046875 10,-0.140625 9.90625,-0.242188 9.859375,-0.359375 9.859375,-0.484375 V -12.84375 H 1.46875 c -0.136719,0 -0.257812,-0.04687 -0.359375,-0.140625 -0.09375,-0.101563 -0.140625,-0.21875 -0.140625,-0.34375 v -2.4375 c 0,-0.132813 0.046875,-0.25 0.140625,-0.34375 C 1.210938,-16.203125 1.332031,-16.25 1.46875,-16.25 Z m 0,0"
           id="path42" />
      </g>
    </g>
    <g
       style="fill:#fd8804;fill-opacity:1;stroke:#ffffff;stroke-width:0.69975;stroke-dasharray:none;stroke-opacity:1"
       id="g48"
       transform="matrix(1.780048,0,0,1.6524098,-240.38232,-92.892276)">
      <g
         transform="translate(265.20784,141.32325)"
         id="g47"
         style="stroke:#ffffff;stroke-width:0.69975;stroke-dasharray:none;stroke-opacity:1">
        <path
           style="stroke:#ffffff;stroke-width:0.69975;stroke-dasharray:none;stroke-opacity:1"
           d="m 18.796875,-13.03125 c 0.257813,0.25 0.390625,0.574219 0.390625,0.96875 v 4.328125 c 0,0.148437 -0.04297,0.296875 -0.125,0.453125 -0.07422,0.148438 -0.164062,0.277344 -0.265625,0.390625 L 16.125,-4.234375 18.34375,-0.6875 c 0.101562,0.15625 0.109375,0.3125 0.01563,0.46875 C 18.273438,-0.0703125 18.140625,0 17.953125,0 h -2.4375 c -0.199219,0 -0.367187,-0.0976562 -0.5,-0.296875 L 13,-3.578125 H 4.1875 v 3.09375 c 0,0.125 -0.046875,0.242187 -0.140625,0.34375 C 3.953125,-0.046875 3.835938,0 3.703125,0 H 1.46875 C 1.332031,0 1.210938,-0.046875 1.109375,-0.140625 1.015625,-0.242188 0.96875,-0.359375 0.96875,-0.484375 v -15.28125 c 0,-0.132813 0.046875,-0.25 0.140625,-0.34375 C 1.210938,-16.203125 1.332031,-16.25 1.46875,-16.25 h 13.546875 c 0.332031,0 0.617187,0.117188 0.859375,0.34375 z M 4.1875,-13.109375 v 6.3125 h 9.828125 c 0.144531,0 0.304687,-0.085937 0.484375,-0.265625 l 1.046875,-0.96875 c 0.144531,-0.15625 0.21875,-0.335938 0.21875,-0.546875 V -11.3125 c 0,-0.132812 -0.03125,-0.242188 -0.09375,-0.328125 l -0.15625,-0.1875 L 14.53125,-12.875 c -0.148438,-0.15625 -0.328125,-0.234375 -0.546875,-0.234375 z m 0,0"
           id="path46" />
      </g>
    </g>
    <g
       style="fill:#fd8804;fill-opacity:1;stroke:#ffffff;stroke-width:0.69975;stroke-dasharray:none;stroke-opacity:1"
       id="g50"
       transform="matrix(1.780048,0,0,1.6524098,-246.12078,-83.711226)">
      <g
         transform="translate(290.95589,141.32325)"
         id="g49"
         style="fill:#fd8804;fill-opacity:1;stroke:#ffffff;stroke-width:0.69975;stroke-dasharray:none;stroke-opacity:1">
        <path
           style="fill:#fd8804;fill-opacity:1;stroke:#ffffff;stroke-width:0.69975;stroke-dasharray:none;stroke-opacity:1"
           d="M 4.625,-11.796875 C 4.46875,-11.648438 4.390625,-11.46875 4.390625,-11.25 v 1.390625 h 11.90625 c 0.125,0 0.234375,0.054687 0.328125,0.15625 0.101562,0.09375 0.15625,0.210937 0.15625,0.34375 V -7.125 c 0,0.136719 -0.05469,0.25 -0.15625,0.34375 -0.09375,0.09375 -0.203125,0.140625 -0.328125,0.140625 H 4.390625 V -4.9375 c 0,0.105469 0.03125,0.210938 0.09375,0.3125 L 5.625,-3.375 c 0.15625,0.148438 0.335938,0.21875 0.546875,0.21875 h 11.71875 c 0.125,0 0.234375,0.054688 0.328125,0.15625 0.101562,0.09375 0.15625,0.203125 0.15625,0.328125 v 2.1875 c 0,0.125 -0.05469,0.242187 -0.15625,0.34375 C 18.125,-0.046875 18.015625,0 17.890625,0 H 4.96875 C 4.644531,0 4.363281,-0.117188 4.125,-0.359375 L 1.359375,-3.0625 C 1.097656,-3.320312 0.96875,-3.644531 0.96875,-4.03125 v -8.234375 c 0,-0.164063 0.039062,-0.320313 0.125,-0.46875 0.09375,-0.15625 0.179688,-0.28125 0.265625,-0.375 L 4.125,-15.875 c 0.257812,-0.25 0.578125,-0.375 0.953125,-0.375 h 12.8125 c 0.125,0 0.234375,0.04687 0.328125,0.140625 0.101562,0.09375 0.15625,0.210937 0.15625,0.34375 v 2.234375 c 0,0.136719 -0.05469,0.257812 -0.15625,0.359375 -0.09375,0.09375 -0.203125,0.140625 -0.328125,0.140625 h -11.75 c -0.148437,0 -0.308594,0.08594 -0.484375,0.25 z m 0,0"
           id="path48" />
      </g>
    </g>
    <path
       style="fill:#022d5e;fill-opacity:1;fill-rule:nonzero;stroke:none"
       d="m 44.969746,132.1151 h -0.58985 c -0.23047,0 -0.41406,-0.17969 -0.41406,-0.41016 0,-0.23437 0.18359,-0.41406 0.41406,-0.41406 h 0.58985 c 0.23046,0 0.41406,0.17969 0.41406,0.41406 0,0.23047 -0.1836,0.41016 -0.41406,0.41016 z m 0,0"
       id="path50" />
    <path
       style="fill:#022d5e;fill-opacity:1;fill-rule:nonzero;stroke:none;stroke-width:2"
       d="m 51.358836,132.56705 h -1.41406 c -0.46094,0 -0.82812,-0.35938 -0.82812,-0.82032 0,-0.46874 0.36718,-0.82812 0.82812,-0.82812 h 1.41406 c 0.46094,0 0.82812,0.35938 0.82812,0.82812 0,0.46094 -0.36718,0.82032 -0.82812,0.82032 z m 0,0"
       id="path51" />
    <path
       style="fill:#fd8804;fill-opacity:1;fill-rule:nonzero;stroke:none;stroke-width:1.90771"
       d="m 166.7905,108.23698 h -1.0988 c -0.42934,0 -0.77135,-0.35867 -0.77135,-0.80891 0,-0.45025 0.34201,-0.80892 0.77135,-0.80892 h 1.0988 c 0.42934,0 0.77134,0.35867 0.77134,0.80892 0,0.45024 -0.342,0.80891 -0.77134,0.80891 z m 0,0"
       id="path53" />
    <path
       style="opacity:1;fill:#fd8804;fill-opacity:1;fill-rule:nonzero;stroke:none;stroke-width:1.75384"
       d="m 311.46199,149.24243 h -8.0911 c -0.4206,0 -0.75566,-0.30944 -0.75566,-0.69791 0,-0.38845 0.33506,-0.69789 0.75566,-0.69789 h 7.77743 l 5.66732,-5.22771 v -29.52275 l -5.62454,-5.19478 H 181.00648 c -0.42059,0 -0.75564,-0.30286 -0.75564,-0.69133 0,-0.39503 0.33505,-0.6979 0.75564,-0.6979 h 130.49828 c 0.20673,0 0.39209,0.0658 0.54179,0.20411 l 6.06653,5.603 c 0.13539,0.13164 0.22099,0.30945 0.22099,0.50039 v 30.09555 c 0,0.19093 -0.0714,0.36211 -0.22099,0.50036 l -6.10931,5.63593 c -0.14256,0.13164 -0.33504,0.21069 -0.54178,0.21069 z m 0,0"
       id="path54" />
    <path
       style="fill:#fd8804;fill-opacity:1;fill-rule:nonzero;stroke:none;stroke-width:1.90771"
       d="m 175.37936,108.1973 h -1.32437 c -0.42934,0 -0.77137,-0.35866 -0.77137,-0.80891 0,-0.45025 0.34203,-0.80891 0.77137,-0.80891 h 1.32437 c 0.42935,0 0.77137,0.35866 0.77137,0.80891 0,0.45025 -0.34202,0.80891 -0.77137,0.80891 z m 0,0"
       id="path55" />
    <path
       style="fill:#fd8804;fill-opacity:1;fill-rule:nonzero;stroke:none;stroke-width:1.90771"
       d="m 156.75938,108.3295 h -1.09881 c -0.42934,0 -0.77134,-0.35868 -0.77134,-0.80891 0,-0.45025 0.342,-0.80893 0.77134,-0.80893 h 1.09881 c 0.42934,0 0.77137,0.35868 0.77137,0.80893 0,0.45023 -0.34203,0.80891 -0.77137,0.80891 z m 0,0"
       id="path56" />
    <path
       style="fill:#022d5e;fill-opacity:1;fill-rule:nonzero;stroke:none"
       d="m 47.930886,132.1151 h -0.59375 c -0.23047,0 -0.41406,-0.17969 -0.41406,-0.41016 0,-0.23437 0.18359,-0.41406 0.41406,-0.41406 h 0.59375 c 0.23047,0 0.41407,0.17969 0.41407,0.41406 0,0.23047 -0.1836,0.41016 -0.41407,0.41016 z m 0,0"
       id="path57" />
    <path
       style="fill:#022d5e;fill-opacity:1;fill-rule:nonzero;stroke:none"
       d="m 41.932836,132.07539 h -4.70313 c -0.23047,0 -0.41406,-0.17969 -0.41406,-0.41015 0,-0.23438 0.18359,-0.41407 0.41406,-0.41407 h 4.70313 c 0.23046,0 0.41406,0.17969 0.41406,0.41407 0,0.23046 -0.1836,0.41015 -0.41406,0.41015 z m 0,0"
       id="path58" />
    <path
       style="opacity:1;fill:#022d5e;fill-opacity:1;fill-rule:nonzero;stroke:none"
       d="m 37.070346,156.67192 c -0.10547,0 -0.21094,-0.0391 -0.29688,-0.125 l -3.33203,-3.33203 c -0.0781,-0.0781 -0.125,-0.18359 -0.125,-0.29687 v -17.85547 c 0,-0.11328 0.043,-0.21485 0.125,-0.29688 l 3.33203,-3.33594 c 0.16016,-0.16015 0.42579,-0.16015 0.58594,0 0.16016,0.16016 0.16016,0.42579 0,0.58594 l -3.21094,3.21094 v 17.51562 l 3.21094,3.21094 c 0.16016,0.15625 0.16016,0.42578 0,0.58203 -0.082,0.0859 -0.1875,0.125 -0.29297,0.125 z m 0,0"
       id="path59" />
    <g
       clip-rule="nonzero"
       clip-path="url(#192be0956b)"
       id="g60"
       transform="matrix(1.9251268,0,0,1.669087,-262.20173,-131.58222)">
      <path
         style="fill:#fd8804;fill-opacity:1;fill-rule:nonzero;stroke:none"
         d="m 201.45703,165.78906 h 3.08984 c 0.1211,0 0.22266,0.043 0.3086,0.12891 0.0859,0.0859 0.1289,0.1875 0.1289,0.30859 v 3.08594 c 0,0.12109 -0.043,0.22266 -0.1289,0.30859 -0.0859,0.0859 -0.1875,0.12891 -0.3086,0.12891 h -3.08984 c -0.11719,0 -0.22266,-0.043 -0.30859,-0.12891 -0.0859,-0.0859 -0.12891,-0.1875 -0.12891,-0.30859 v -3.08594 c 0,-0.12109 0.043,-0.22265 0.12891,-0.30859 0.0859,-0.0859 0.1914,-0.12891 0.30859,-0.12891 z m 0,0"
         id="path60" />
    </g>
    <g
       clip-rule="nonzero"
       clip-path="url(#d5429dccf7)"
       id="g61"
       transform="translate(-89.286474,-16.055576)"
       style="opacity:1;fill:#fd8804;fill-opacity:1">
      <path
         style="fill:#fd8804;fill-opacity:1;fill-rule:nonzero;stroke:none"
         d="m 196.78906,165.78906 h 3.08594 c 0.12109,0 0.22266,0.043 0.30859,0.12891 0.0859,0.0859 0.12891,0.1875 0.12891,0.30859 v 3.08594 c 0,0.12109 -0.043,0.22266 -0.12891,0.30859 -0.0859,0.0859 -0.1875,0.12891 -0.30859,0.12891 h -3.08594 c -0.12109,0 -0.22656,-0.043 -0.3125,-0.12891 -0.082,-0.0859 -0.125,-0.1875 -0.125,-0.30859 v -3.08594 c 0,-0.12109 0.043,-0.22265 0.125,-0.30859 0.0859,-0.0859 0.19141,-0.12891 0.3125,-0.12891 z m 0,0"
         id="path61" />
    </g>
    <g
       clip-rule="nonzero"
       clip-path="url(#010245b83e)"
       id="g62"
       transform="translate(-81.869598,-50.996192)"
       style="opacity:1;fill:#ffffff;fill-opacity:1;stroke:none;stroke-width:0.69975;stroke-linecap:square;stroke-linejoin:bevel;stroke-miterlimit:4.9;stroke-dasharray:none;stroke-dashoffset:0;stroke-opacity:1;paint-order:normal">
      <path
         style="fill:#ffffff;fill-opacity:1;fill-rule:nonzero;stroke:none;stroke-width:0.69975;stroke-linecap:square;stroke-linejoin:bevel;stroke-miterlimit:4.9;stroke-dasharray:none;stroke-dashoffset:0;stroke-opacity:1;paint-order:normal"
         d="m 192.23437,165.78906 h 3.08594 c 0.1211,0 0.22656,0.043 0.3086,0.12891 0.0859,0.0859 0.1289,0.1875 0.1289,0.30859 v 3.08594 c 0,0.12109 -0.043,0.22266 -0.1289,0.30859 -0.082,0.0859 -0.1875,0.12891 -0.3086,0.12891 h -3.08594 c -0.12109,0 -0.22265,-0.043 -0.30859,-0.12891 -0.0859,-0.0859 -0.12891,-0.1875 -0.12891,-0.30859 v -3.08594 c 0,-0.12109 0.043,-0.22265 0.12891,-0.30859 0.0859,-0.0859 0.1875,-0.12891 0.30859,-0.12891 z m 0,0"
         id="path62" />
    </g>
    <g
       clip-rule="nonzero"
       clip-path="url(#f6c8ad169c)"
       id="g63"
       transform="matrix(1.9251268,0,0,1.669087,-226.52911,-134.35183)">
      <path
         style="fill:#fd8804;fill-opacity:1;fill-rule:nonzero;stroke:none"
         d="m 187.68359,165.78906 h 3.08594 c 0.12109,0 0.22266,0.043 0.30859,0.12891 0.0859,0.0859 0.12891,0.1875 0.12891,0.30859 v 3.08594 c 0,0.12109 -0.043,0.22266 -0.12891,0.30859 -0.0859,0.0859 -0.1875,0.12891 -0.30859,0.12891 h -3.08594 c -0.12109,0 -0.22656,-0.043 -0.3125,-0.12891 -0.0859,-0.0859 -0.125,-0.1875 -0.125,-0.30859 v -3.08594 c 0,-0.12109 0.0391,-0.22265 0.125,-0.30859 0.0859,-0.0859 0.19141,-0.12891 0.3125,-0.12891 z m 0,0"
         id="path63" />
    </g>
    <g
       clip-rule="nonzero"
       clip-path="url(#64318b5fdd)"
       id="g64"
       transform="matrix(1.9251268,0,0,1.669087,-293.96632,-115.04579)">
      <path
         style="fill:#fd8804;fill-opacity:1;fill-rule:nonzero;stroke:none"
         d="m 268.51172,190.32812 h 3.08594 c 0.12109,0 0.22265,0.043 0.30859,0.12891 0.0859,0.082 0.12891,0.1875 0.12891,0.30859 v 3.08594 c 0,0.1211 -0.043,0.22266 -0.12891,0.3086 -0.0859,0.0859 -0.1875,0.1289 -0.30859,0.1289 h -3.08594 c -0.1211,0 -0.22656,-0.043 -0.3086,-0.1289 -0.0859,-0.0859 -0.1289,-0.1875 -0.1289,-0.3086 v -3.08594 c 0,-0.12109 0.043,-0.22656 0.1289,-0.30859 0.082,-0.0859 0.1875,-0.12891 0.3086,-0.12891 z m 0,0"
         id="path64" />
    </g>
    <g
       clip-rule="nonzero"
       clip-path="url(#4046dd648a)"
       id="g65"
       transform="matrix(1.9251268,0,0,1.669087,-293.96632,-117.54942)">
      <path
         style="fill:#fd8804;fill-opacity:1;fill-rule:nonzero;stroke:none"
         d="m 263.83984,190.32812 h 3.08594 c 0.12109,0 0.22266,0.043 0.30859,0.12891 0.0859,0.082 0.12891,0.1875 0.12891,0.30859 v 3.08594 c 0,0.1211 -0.043,0.22266 -0.12891,0.3086 -0.0859,0.0859 -0.1875,0.1289 -0.30859,0.1289 h -3.08594 c -0.12109,0 -0.22265,-0.043 -0.30859,-0.1289 -0.0859,-0.0859 -0.12891,-0.1875 -0.12891,-0.3086 v -3.08594 c 0,-0.12109 0.043,-0.22656 0.12891,-0.30859 0.0859,-0.0859 0.1875,-0.12891 0.30859,-0.12891 z m 0,0"
         id="path65" />
    </g>
    <g
       clip-rule="nonzero"
       clip-path="url(#b7e385acda)"
       id="g66"
       transform="matrix(1.9251268,0,0,1.669087,-293.96632,-112.54216)">
      <path
         style="fill:#fd8804;fill-opacity:1;fill-rule:nonzero;stroke:none"
         d="m 259.28516,190.32812 h 3.08984 c 0.11719,0 0.22266,0.043 0.30859,0.12891 0.0859,0.082 0.12891,0.1875 0.12891,0.30859 v 3.08594 c 0,0.1211 -0.043,0.22266 -0.12891,0.3086 -0.0859,0.0859 -0.1914,0.1289 -0.30859,0.1289 h -3.08984 c -0.1211,0 -0.22266,-0.043 -0.3086,-0.1289 -0.0859,-0.0859 -0.1289,-0.1875 -0.1289,-0.3086 v -3.08594 c 0,-0.12109 0.043,-0.22656 0.1289,-0.30859 0.0859,-0.0859 0.1875,-0.12891 0.3086,-0.12891 z m 0,0"
         id="path66" />
    </g>
    <g
       clip-rule="nonzero"
       clip-path="url(#16536a51ed)"
       id="g67"
       transform="matrix(1.9251268,0,0,1.669087,-293.96632,-115.04579)"
       style="opacity:0.728889;stroke-width:0.99975;stroke-dasharray:none">
      <path
         style="fill:#fd8804;fill-opacity:1;fill-rule:nonzero;stroke:none;stroke-width:0.99975;stroke-dasharray:none"
         d="m 254.73437,190.32812 h 3.08594 c 0.1211,0 0.22266,0.043 0.3086,0.12891 0.0859,0.082 0.1289,0.1875 0.1289,0.30859 v 3.08594 c 0,0.1211 -0.043,0.22266 -0.1289,0.3086 -0.0859,0.0859 -0.1875,0.1289 -0.3086,0.1289 h -3.08594 c -0.12109,0 -0.22265,-0.043 -0.30859,-0.1289 -0.0859,-0.0859 -0.12891,-0.1875 -0.12891,-0.3086 v -3.08594 c 0,-0.12109 0.043,-0.22656 0.12891,-0.30859 0.0859,-0.0859 0.1875,-0.12891 0.30859,-0.12891 z m 0,0"
         id="path67" />
    </g>
    <path
       style="fill:#fd8804;fill-opacity:1;fill-rule:nonzero;stroke:none;stroke-width:1.79254"
       d="m 107.94486,202.64225 c -0.20304,0 -0.40609,-0.0718 -0.564,-0.20864 l -6.52739,-5.65924 c -0.14284,-0.12385 -0.23312,-0.29992 -0.23312,-0.48899 v -2.85571 c 0,-0.38467 0.34592,-0.6911 0.7896,-0.6911 0.45121,0 0.79712,0.30643 0.79712,0.6911 v 2.56883 l 6.28676,5.44409 c 0.30831,0.26732 0.30831,0.71066 0,0.97798 -0.15786,0.13687 -0.36096,0.20864 -0.57153,0.20864 z m 0,0"
       id="path68" />
    <path
       style="fill:#fd8804;fill-opacity:1;fill-rule:nonzero;stroke:none;stroke-width:1.79254"
       d="m 141.92299,178.55054 c -0.44369,0 -0.79714,-0.30645 -0.79714,-0.69112 v -3.30558 c 0,-0.18907 0.0828,-0.35859 0.24064,-0.4955 l 6.57252,-5.68533 c 0.30831,-0.26732 0.81968,-0.26732 1.12799,0 0.3008,0.26732 0.3008,0.71066 0,0.97799 l -6.33186,5.4832 v 3.02522 c 0,0.38467 -0.35343,0.69112 -0.79712,0.69112 z m 0,0"
       id="path69" />
    <g
       clip-rule="nonzero"
       clip-path="url(#21eb1a57e2)"
       id="g71"
       transform="translate(-139.97015,-103.39371)">
      <path
         style="fill:#fd8804;fill-opacity:1;fill-rule:nonzero;stroke:none"
         d="m 177.8125,178.63672 v 3.08594 c 0,0.12109 -0.043,0.22656 -0.12891,0.30859 -0.082,0.0859 -0.1875,0.12891 -0.30859,0.12891 h -3.08594 c -0.12109,0 -0.22265,-0.043 -0.30859,-0.12891 -0.0859,-0.082 -0.12891,-0.1875 -0.12891,-0.30859 v -3.08594 c 0,-0.1211 0.043,-0.22266 0.12891,-0.3086 0.0859,-0.0859 0.1875,-0.1289 0.30859,-0.1289 h 3.08594 c 0.12109,0 0.22656,0.043 0.30859,0.1289 0.0859,0.0859 0.12891,0.1875 0.12891,0.3086 z m 0,0"
         id="path70" />
      <path
         style="fill:#ffffff;fill-opacity:1;fill-rule:nonzero;stroke:none"
         d="m 177.38281,182.19531 h -3.09375 c -0.2539,0 -0.46875,-0.20703 -0.46875,-0.46484 v -3.09375 c 0,-0.25391 0.20703,-0.46485 0.46875,-0.46485 h 3.09375 c 0.25391,0 0.46485,0.20704 0.46485,0.46485 v 3.09375 c 0,0.2539 -0.20704,0.46484 -0.46485,0.46484 z m -3.09375,-3.96094 c -0.22265,0 -0.40625,0.1836 -0.40625,0.41016 v 3.08984 c 0,0.22657 0.1836,0.41016 0.40625,0.41016 h 3.09375 c 0.22266,0 0.40625,-0.18359 0.40625,-0.41016 v -3.08984 c 0,-0.22656 -0.18359,-0.41016 -0.40625,-0.41016 z m 0,0"
         id="path71" />
    </g>
    <path
       style="fill:#fd8804;fill-opacity:1;fill-rule:nonzero;stroke:none;stroke-width:1.62542;stroke-opacity:1"
       d="m 229.00106,169.35479 c -0.36479,0 -0.65545,-0.30643 -0.65545,-0.69111 v -2.56231 l -5.16303,-5.46366 c -0.25347,-0.26079 -0.25347,-0.71066 0,-0.97146 0.25365,-0.2673 0.674,-0.2673 0.92752,0 l 5.36087,5.65273 c 0.1234,0.13036 0.19786,0.30643 0.19786,0.49552 v 2.84918 c 0,0.38468 -0.29062,0.69111 -0.65543,0.69111 z m 0,0"
       id="path72" />
    <path
       style="opacity:0.688889;fill:#fd8804;fill-opacity:1;fill-rule:nonzero;stroke:none;stroke-width:1.79254"
       d="m 173.29192,199.69446 c -0.20303,0 -0.4136,-0.0718 -0.57152,-0.20864 -0.30832,-0.2673 -0.30832,-0.71066 0,-0.97797 l 6.33186,-5.48974 v -3.0187 c 0,-0.38467 0.35346,-0.6911 0.79712,-0.6911 0.44368,0 0.79714,0.30643 0.79714,0.6911 v 3.30558 c 0,0.18907 -0.0828,0.35859 -0.24064,0.4955 l -6.55747,5.69186 c -0.15786,0.14337 -0.36096,0.20863 -0.57153,0.20863 z m 0,0"
       id="path73" />
    <g
       clip-rule="nonzero"
       clip-path="url(#64d3319095)"
       id="g74"
       transform="matrix(1.9251268,0,0,1.669087,-302.03534,-108.24166)"
       style="fill:#022d5e;fill-opacity:1">
      <path
         style="fill:#022d5e;fill-opacity:1;fill-rule:nonzero;stroke:none"
         d="m 281.17578,181.5 v -3.08594 c 0,-0.12109 0.043,-0.22656 0.12891,-0.3125 0.0859,-0.082 0.1875,-0.125 0.30859,-0.125 h 3.08594 c 0.12109,0 0.22656,0.043 0.30859,0.125 0.0859,0.0859 0.12891,0.19141 0.12891,0.3125 V 181.5 c 0,0.12109 -0.043,0.22266 -0.12891,0.30859 -0.082,0.0859 -0.1875,0.12891 -0.30859,0.12891 h -3.08594 c -0.12109,0 -0.22266,-0.043 -0.30859,-0.12891 -0.0859,-0.0859 -0.12891,-0.1875 -0.12891,-0.30859 z m 0,0"
         id="path74" />
    </g>
    <g
       style="fill:none;fill-opacity:1;stroke:#ffffff;stroke-width:0.99975;stroke-dasharray:none;stroke-opacity:1"
       id="g76"
       transform="matrix(1.9251268,0,0,1.669087,-254.54646,-115.75314)">
      <g
         transform="translate(186.00149,187.55975)"
         id="g75"
         style="fill:none;stroke:#ffffff;stroke-width:0.99975;stroke-dasharray:none;stroke-opacity:1">
        <path
           style="fill:none;stroke:#ffffff;stroke-width:0.99975;stroke-dasharray:none;stroke-opacity:1"
           d="M 4.625,-11.796875 C 4.46875,-11.648438 4.390625,-11.46875 4.390625,-11.25 v 1.390625 h 11.90625 c 0.125,0 0.234375,0.054687 0.328125,0.15625 0.101562,0.09375 0.15625,0.210937 0.15625,0.34375 V -7.125 c 0,0.136719 -0.05469,0.25 -0.15625,0.34375 -0.09375,0.09375 -0.203125,0.140625 -0.328125,0.140625 H 4.390625 V -4.9375 c 0,0.105469 0.03125,0.210938 0.09375,0.3125 L 5.625,-3.375 c 0.15625,0.148438 0.335938,0.21875 0.546875,0.21875 h 11.71875 c 0.125,0 0.234375,0.054688 0.328125,0.15625 0.101562,0.09375 0.15625,0.203125 0.15625,0.328125 v 2.1875 c 0,0.125 -0.05469,0.242187 -0.15625,0.34375 C 18.125,-0.046875 18.015625,0 17.890625,0 H 4.96875 C 4.644531,0 4.363281,-0.117188 4.125,-0.359375 L 1.359375,-3.0625 C 1.097656,-3.320312 0.96875,-3.644531 0.96875,-4.03125 v -8.234375 c 0,-0.164063 0.039062,-0.320313 0.125,-0.46875 0.09375,-0.15625 0.179688,-0.28125 0.265625,-0.375 L 4.125,-15.875 c 0.257812,-0.25 0.578125,-0.375 0.953125,-0.375 h 12.8125 c 0.125,0 0.234375,0.04687 0.328125,0.140625 0.101562,0.09375 0.15625,0.210937 0.15625,0.34375 v 2.234375 c 0,0.136719 -0.05469,0.257812 -0.15625,0.359375 -0.09375,0.09375 -0.203125,0.140625 -0.328125,0.140625 h -11.75 c -0.148437,0 -0.308594,0.08594 -0.484375,0.25 z m 0,0"
           id="path75" />
      </g>
    </g>
    <g
       style="fill:none;fill-opacity:0.0103627;stroke:#ffffff;stroke-width:0.99975;stroke-dasharray:none;stroke-opacity:1"
       id="g78"
       transform="matrix(1.9251268,0,0,1.669087,-262.33326,-116.38595)">
      <g
         transform="translate(210.93685,187.55975)"
         id="g77"
         style="fill:none;fill-opacity:0.0103627;stroke:#ffffff;stroke-width:0.99975;stroke-dasharray:none;stroke-opacity:1">
        <path
           style="fill:none;fill-opacity:0.0103627;stroke:#ffffff;stroke-width:0.99975;stroke-dasharray:none;stroke-opacity:1"
           d="m 16.03125,-9.78125 c -0.136719,0 -0.25,-0.046875 -0.34375,-0.140625 -0.09375,-0.101563 -0.140625,-0.222656 -0.140625,-0.359375 v -1.125 c 0,-0.238281 -0.07813,-0.425781 -0.234375,-0.5625 L 14.28125,-12.9375 C 14.101562,-13.113281 13.925781,-13.203125 13.75,-13.203125 H 6.140625 c -0.148437,0 -0.308594,0.08984 -0.484375,0.265625 L 4.625,-11.96875 c -0.15625,0.15625 -0.234375,0.34375 -0.234375,0.5625 v 6.5625 c 0,0.21875 0.078125,0.402344 0.234375,0.546875 L 5.65625,-3.3125 c 0.175781,0.167969 0.335938,0.25 0.484375,0.25 H 13.75 c 0.175781,0 0.351562,-0.082031 0.53125,-0.25 l 1.03125,-0.984375 c 0.15625,-0.125 0.234375,-0.304687 0.234375,-0.546875 v -1.140625 c 0,-0.125 0.04687,-0.234375 0.140625,-0.328125 0.09375,-0.101562 0.207031,-0.15625 0.34375,-0.15625 h 2.171875 c 0.132813,0 0.25,0.054688 0.34375,0.15625 0.101563,0.09375 0.15625,0.203125 0.15625,0.328125 V -4 c 0,0.324219 -0.121094,0.605469 -0.359375,0.84375 l -2.859375,2.921875 C 15.222656,0.0234375 14.894531,0.15625 14.5,0.15625 H 5.234375 c -0.367187,0 -0.679687,-0.1328125 -0.9375,-0.390625 L 1.359375,-3.15625 C 1.273438,-3.257812 1.1875,-3.382812 1.09375,-3.53125 1.007812,-3.6875 0.96875,-3.84375 0.96875,-4 v -8.265625 c 0,-0.164063 0.039062,-0.320313 0.125,-0.46875 0.09375,-0.15625 0.179688,-0.28125 0.265625,-0.375 l 2.9375,-2.921875 c 0.257813,-0.257812 0.570313,-0.390625 0.9375,-0.390625 H 14.5 c 0.394531,0 0.722656,0.132813 0.984375,0.390625 l 2.859375,2.921875 c 0.238281,0.242187 0.359375,0.523437 0.359375,0.84375 v 1.984375 c 0,0.136719 -0.05469,0.257812 -0.15625,0.359375 -0.09375,0.09375 -0.210937,0.140625 -0.34375,0.140625 z m 0,0"
           id="path76" />
      </g>
    </g>
    <g
       style="fill:none;fill-opacity:1;stroke:#022d5e;stroke-width:0.99975;stroke-dasharray:none;stroke-opacity:1"
       id="g80"
       transform="matrix(1.9251268,0,0,1.669087,-265.44797,-118.10149)">
      <g
         transform="translate(236.19728,187.55975)"
         id="g79"
         style="fill:none;fill-opacity:1;stroke:#022d5e;stroke-width:0.99975;stroke-dasharray:none;stroke-opacity:1">
        <path
           style="fill:none;fill-opacity:1;stroke:#022d5e;stroke-width:0.99975;stroke-dasharray:none;stroke-opacity:1"
           d="m 18.203125,-16.25 c 0.132813,0 0.25,0.04687 0.34375,0.140625 0.101563,0.09375 0.15625,0.210937 0.15625,0.34375 v 15.28125 c 0,0.125 -0.05469,0.242187 -0.15625,0.34375 C 18.453125,-0.046875 18.335938,0 18.203125,0 h -2.4375 c -0.125,0 -0.242187,-0.046875 -0.34375,-0.140625 -0.09375,-0.101563 -0.140625,-0.21875 -0.140625,-0.34375 v -6.25 H 4.390625 v 6.25 c 0,0.125 -0.054687,0.242187 -0.15625,0.34375 C 4.140625,-0.046875 4.03125,0 3.90625,0 H 1.46875 C 1.332031,0 1.210938,-0.046875 1.109375,-0.140625 1.015625,-0.242188 0.96875,-0.359375 0.96875,-0.484375 v -15.28125 c 0,-0.132813 0.046875,-0.25 0.140625,-0.34375 C 1.210938,-16.203125 1.332031,-16.25 1.46875,-16.25 h 2.4375 c 0.125,0 0.234375,0.04687 0.328125,0.140625 0.101563,0.09375 0.15625,0.210937 0.15625,0.34375 v 5.8125 H 15.28125 v -5.8125 c 0,-0.132813 0.04687,-0.25 0.140625,-0.34375 0.101563,-0.09375 0.21875,-0.140625 0.34375,-0.140625 z m 0,0"
           id="path78" />
      </g>
    </g>
    <path
       style="fill:#fd8804;fill-opacity:1;fill-rule:nonzero;stroke:none"
       d="m 50.980346,174.56055 c 0.54687,0 0.99219,-0.44531 0.99219,-0.99218 0,-0.54688 -0.44532,-0.99219 -0.99219,-0.99219 -0.54688,0 -0.99219,0.44531 -0.99219,0.99219 0,0.54687 0.44531,0.99218 0.99219,0.99218 z m 2.61328,4.98438 c 0,-0.63281 0.51172,-1.14453 1.14453,-1.14453 0.63281,0 1.14453,0.51172 1.14453,1.14453 0,0.52344 -0.35547,0.96875 -0.83984,1.10156 v 6.67969 l -4.36719,-4.36719 v -8.13281 c -0.57031,-0.13672 -0.99219,-0.64844 -0.99219,-1.25781 0,-0.71485 0.58203,-1.29688 1.29688,-1.29688 0.71484,0 1.29687,0.58203 1.29687,1.29688 0,0.60937 -0.42187,1.12109 -0.99218,1.25781 v 7.8789 l 3.14843,3.14844 v -5.20703 c -0.48437,-0.13281 -0.83984,-0.57812 -0.83984,-1.10156"
       id="path80" />
  </g>
</svg>
